<?xml version="1.0" standalone="no"?> <!DOCTYPE svg PUBLIC "-//W3C//DTD SVG 1.0//EN" "http://www.w3.org/TR/2001/REC-SVG-20010904/DTD/svg10.dtd" > <svg xmlns="http://www.w3.org/2000/svg" width="100%" height="100%">
<defs >
<font id="akzidenzgroteskromanbold" horiz-adv-x="490" ><font-face
    font-family="AkzidenzGroteskCE"
    units-per-em="1000"
    panose-1="0 0 9 0 0 0 0 0 0 0"
    ascent="956"
    descent="-234"
    alphabetic="0" />
<missing-glyph horiz-adv-x="500" d="M63 0V956H438V0H63ZM125 63H375V894H125V63Z" />
<glyph unicode=" " glyph-name="space" horiz-adv-x="278" />
<glyph unicode="!" glyph-name="exclam" horiz-adv-x="296" d="M181 242H115L67 500V712H229V500L181 242ZM229 0H67V168H229V0Z" />
<glyph unicode="&quot;" glyph-name="quotedbl" horiz-adv-x="481" d="M272 368V712H392V368H272ZM89 368V712H209V368H89Z" />
<glyph unicode="#" glyph-name="numbersign" horiz-adv-x="556" d="M245 395L231 287H311L325 395H245ZM87 0L113 185H33V287H127L141 395H61V497H156L181 682H285L260 497H340L365 682H469L443 497H523V395H429L415 287H495V185H400L375 0H271L296 185H217L191 0H87Z" />
<glyph unicode="$" glyph-name="dollar" horiz-adv-x="556" d="M518 624L415 518Q350 564 281 564Q234 564 211 549T187 503Q187 472 254 451L369 415Q454 388 493 346Q541 295 541 204Q541 114 478 54T321 -14V-135H231V-14Q98 -12 -7 80L101 189Q176 118 276
118Q325 118 349 137T373 196Q373 228 347 247Q330 260 288 273L175 309Q95 334 59 374Q19 418 19 491Q19 580 80 637Q139 691 231 696V817H321V696Q432 691 518 624Z" />
<glyph unicode="%" glyph-name="percent" horiz-adv-x="889" d="M214 -14L603 721L662 696L272 -39L214 -14ZM231 412Q255 412 266 436T278 509Q278 558 267 582T231 606Q208 606 196 582T184 509Q184 461 196 437T231 412ZM658 76Q682 76 693 100T705 173Q705
222 694 246T658 270Q635 270 623 246T611 173Q611 125 623 101T658 76ZM231 322Q167 322 130 367Q88 416 88 509Q88 602 130 651Q167 696 231 696Q295 696 333 651Q374 602 374 509Q374 416 333 367Q295 322 231 322ZM658 -14Q594 -14 557 31Q515 80 515 173Q515
266 557 315Q594 360 658 360Q722 360 760 315Q801 266 801 173Q801 80 760 31Q722 -14 658 -14Z" />
<glyph unicode="&amp;" glyph-name="ampersand" horiz-adv-x="685" d="M380 395L471 256Q497 298 508 365L637 317Q601 205 556 145Q584 114 630 114Q646 114 664 116V0H573Q503 0 459 49Q380 -6 266 -6Q148 -6 79 66Q21 125 21 200Q21 292 68 351Q107 399 195
442Q152 501 152 570Q152 640 208 682Q258 720 331 720Q410 720 460 681Q515 638 515 562Q515 459 380 395ZM382 151L261 333Q177 278 177 218Q177 179 203 148Q232 114 276 114Q340 114 382 151ZM383 567Q383 590 371 601T332 612Q314 612 299 600T284 570Q284
545 316 492Q383 524 383 567Z" />
<glyph unicode="&apos;" glyph-name="quotesingle" horiz-adv-x="278" d="M79 368V712H199V368H79Z" />
<glyph unicode="(" glyph-name="parenleft" horiz-adv-x="352" d="M341 -108L289 -168Q158 -66 99 36Q36 145 36 282Q36 544 287 732L339 679Q254 596 218 507Q180 415 180 282Q180 41 341 -108Z" />
<glyph unicode=")" glyph-name="parenright" horiz-adv-x="352" d="M63 -168L11 -108Q172 41 172 282Q172 415 134 507Q98 596 13 679L65 732Q316 544 316 282Q316 145 253 36Q194 -66 63 -168Z" />
<glyph unicode="*" glyph-name="asterisk" horiz-adv-x="352" d="M50 441L109 527L10 553L32 632L135 605V712H213V605L316 640L342 563L241 532L305 445L239 397L177 483L116 397L50 441Z" />
<glyph unicode="+" glyph-name="plus" horiz-adv-x="600" d="M240 313V506H360V313H553V193H360V0H240V193H47V313H240Z" />
<glyph unicode="," glyph-name="comma" horiz-adv-x="278" d="M61 -176V-103Q124 -86 124 0H58V168H220V0Q220 -72 173 -120Q131 -162 61 -176Z" />
<glyph unicode="-" glyph-name="hyphen" horiz-adv-x="352" d="M300 204H52V348H300V204Z" />
<glyph unicode="." glyph-name="period" horiz-adv-x="278" d="M220 0H58V168H220V0Z" />
<glyph unicode="/" glyph-name="slash" horiz-adv-x="481" d="M26 -20L335 732H455L146 -20H26Z" />
<glyph unicode="0" glyph-name="zero" horiz-adv-x="556" d="M371 341Q371 469 346 523Q325 570 278 570Q232 570 209 513T185 341Q185 215 209 162Q230 112 278 112Q325 112 347 159Q371 213 371 341ZM521 341Q521 153 444 61Q380 -14 278 -14Q176 -14 112 61Q35
153 35 341Q35 520 109 614Q174 696 278 696Q384 696 446 621Q521 530 521 341Z" />
<glyph unicode="1" glyph-name="one" horiz-adv-x="556" d="M377 682V0H215V498Q171 481 69 475V583Q205 587 250 682H377Z" />
<glyph unicode="2" glyph-name="two" horiz-adv-x="556" d="M501 132V0H35V120Q228 272 280 338T333 490Q333 533 318 554T271 576Q238 576 221 550T204 470Q204 455 207 429L42 444V473Q42 561 100 625Q164 696 268 696Q373 696 437 641T501 491Q501 384 444
309Q395 244 243 132H501Z" />
<glyph unicode="3" glyph-name="three" horiz-adv-x="556" d="M233 302V416H268Q302 416 319 434T336 489Q336 530 320 550T269 570Q204 570 198 472L42 485Q48 588 115 644Q178 696 280 696Q381 696 440 650Q504 600 504 507Q504 453 479 417T401 360Q464 341
495 302T527 202Q527 86 443 31Q375 -14 268 -14Q141 -14 83 49Q29 107 29 231L189 244Q185 230 185 209Q185 161 205 137T267 112Q308 112 328 135T349 203Q349 253 328 277T264 302H233Z" />
<glyph unicode="4" glyph-name="four" horiz-adv-x="556" d="M287 271L285 508L130 271H287ZM16 157V277L297 682H449V271H540V157H450V0H287V157H16Z" />
<glyph unicode="5" glyph-name="five" horiz-adv-x="556" d="M56 322L100 682H492L481 550H222L205 430Q248 466 315 466Q405 466 463 402T521 237Q521 132 458 64Q387 -14 259 -14Q142 -14 83 51Q29 110 29 214L185 221V199Q185 157 208 132T263 106Q308 106
332 143Q353 175 353 224Q353 288 332 320T267 352Q215 352 192 299L56 322Z" />
<glyph unicode="6" glyph-name="six" horiz-adv-x="556" d="M514 508L354 492Q344 570 291 570Q235 570 212 509Q194 462 191 366H194Q217 402 253 419T337 437Q416 437 468 387Q528 329 528 224Q528 117 461 52T287 -14Q178 -14 114 54Q35 138 35 316Q35 506
101 601T298 696Q483 696 514 508ZM372 218Q372 261 352 287Q330 317 290 317Q254 317 232 291T209 218Q209 165 229 139T290 112Q331 112 351 138T372 218Z" />
<glyph unicode="7" glyph-name="seven" horiz-adv-x="556" d="M61 550V682H544V556Q453 462 387 313Q317 153 308 0H120Q182 316 383 550H61Z" />
<glyph unicode="8" glyph-name="eight" horiz-adv-x="556" d="M344 493Q344 535 328 555T278 576Q245 576 229 556T212 493Q212 451 228 430T278 409Q311 409 327 430T344 493ZM521 196Q521 89 451 35Q388 -14 278 -14Q168 -14 105 35Q35 89 35 196Q35 255 68
298T159 356Q115 375 89 417T62 509Q62 603 118 649T286 696Q379 696 434 652Q494 603 494 509Q494 459 468 417T397 354Q454 341 487 298T521 196ZM359 204Q359 253 339 277T278 301Q238 301 218 277T197 204Q197 155 217 131T278 106Q319 106 339 130T359 204Z"
/>
<glyph unicode="9" glyph-name="nine" horiz-adv-x="556" d="M42 174L202 190Q212 112 265 112Q321 112 344 173Q362 220 365 316H362Q339 281 304 263T219 245Q140 245 88 295Q28 353 28 458Q28 565 95 630T269 696Q378 696 442 628Q521 544 521 366Q521 176
456 81T258 -14Q73 -14 42 174ZM184 464Q184 421 204 395Q226 365 266 365Q302 365 324 391T347 464Q347 517 327 543T266 570Q225 570 205 544T184 464Z" />
<glyph unicode=":" glyph-name="colon" horiz-adv-x="278" d="M220 356H58V524H220V356ZM220 0H58V168H220V0Z" />
<glyph unicode=";" glyph-name="semicolon" horiz-adv-x="278" d="M61 -176V-103Q124 -86 124 0H58V168H220V0Q220 -72 173 -120Q131 -162 61 -176ZM220 356H58V524H220V356Z" />
<glyph unicode="&lt;" glyph-name="less" horiz-adv-x="600" d="M553 107V-8L47 206V300L553 514V399L202 253L553 107Z" />
<glyph unicode="=" glyph-name="equal" horiz-adv-x="600" d="M553 425V305H47V425H553ZM553 201V81H47V201H553Z" />
<glyph unicode="&gt;" glyph-name="greater" horiz-adv-x="600" d="M47 107L398 253L47 399V514L553 300V206L47 -8V107Z" />
<glyph unicode="?" glyph-name="question" horiz-adv-x="611" d="M332 245H206V276Q206 327 256 370Q301 403 347 437Q397 478 397 525Q397 564 370 584T302 604Q250 604 218 569T183 480L42 527Q97 718 306 718Q441 718 511 660Q569 611 569 536Q569 450 487
389L359 294Q335 276 332 245ZM350 0H188V168H350V0Z" />
<glyph unicode="@" glyph-name="at" horiz-adv-x="800" d="M494 352Q494 399 465 425Q442 445 415 445Q373 445 341 417Q306 387 306 344Q306 302 330 277T392 252Q430 252 462 280T494 352ZM622 129L721 132Q609 -20 424 -20Q260 -20 146 86T32 353Q32 514 144
623T418 732Q555 732 659 649Q768 561 768 433Q768 286 660 203Q582 144 510 144Q457 144 454 194Q411 144 357 144Q288 144 240 195T192 330Q192 416 247 480Q306 547 395 547Q435 547 465 533T517 490L527 538H622L577 298Q572 271 572 263Q572 242 590 242Q625
242 653 284Q684 330 684 399Q684 514 610 578T414 642Q284 642 207 558Q134 478 134 354Q134 227 215 149T426 70Q542 70 622 129Z" />
<glyph unicode="A" glyph-name="A" horiz-adv-x="722" d="M3 0L266 712H450L719 0H528L492 112H229L193 0H3ZM271 244H449L359 538L271 244Z" />
<glyph unicode="B" glyph-name="B" horiz-adv-x="722" d="M69 0V712H417Q538 712 598 667T658 529Q658 466 621 425T509 366Q587 360 633 321Q684 278 684 203Q684 102 612 51T393 0H69ZM241 300V132H386Q446 132 476 153T506 215Q506 260 487 280T418 300H241ZM239
580V432H387Q434 432 457 450T480 506Q480 549 456 566Q435 580 387 580H239Z" />
<glyph unicode="C" glyph-name="C" horiz-adv-x="704" d="M682 546L540 475Q522 524 481 553T392 582Q313 582 267 529Q216 470 216 356Q216 264 255 204Q302 130 398 130Q437 130 480 157T544 230L685 162Q639 78 563 29T398 -20Q234 -20 133 93Q38 199 38 356Q38
514 128 619Q224 732 384 732Q578 732 682 546Z" />
<glyph unicode="D" glyph-name="D" horiz-adv-x="741" d="M64 0V712H340Q511 712 603 629Q703 539 703 356Q703 173 603 83Q511 0 340 0H64ZM242 562V150H344Q435 150 480 201T525 356Q525 459 480 510T343 562H242Z" />
<glyph unicode="E" glyph-name="E" horiz-adv-x="648" d="M623 0H69V712H593V574H247V444H570V306H247V138H623V0Z" />
<glyph unicode="F" glyph-name="F" horiz-adv-x="630" d="M69 0V712H613V574H247V424H586V286H247V0H69Z" />
<glyph unicode="G" glyph-name="G" horiz-adv-x="759" d="M715 554L567 489Q514 582 399 582Q314 582 267 528Q216 469 216 356Q216 250 263 190T399 130Q455 130 499 160Q551 196 557 259H399V397H707V0H569V64Q496 -20 362 -20Q205 -20 119 85Q38 185 38 353Q38
522 126 624Q219 732 387 732Q608 732 715 554Z" />
<glyph unicode="H" glyph-name="H" horiz-adv-x="759" d="M69 0V712H247V456H512V712H690V0H512V300H247V0H69Z" />
<glyph unicode="I" glyph-name="I" horiz-adv-x="316" d="M69 0V712H247V0H69Z" />
<glyph unicode="J" glyph-name="J" horiz-adv-x="407" d="M19 0V144H93Q135 144 149 163Q160 178 160 216V712H338V158Q338 0 168 0H19Z" />
<glyph unicode="K" glyph-name="K" horiz-adv-x="741" d="M69 0V712H247V428L502 712H738L479 442L746 0H548L354 316L247 207V0H69Z" />
<glyph unicode="L" glyph-name="L" horiz-adv-x="556" d="M69 0V712H247V150H525V0H69Z" />
<glyph unicode="M" glyph-name="M" horiz-adv-x="907" d="M65 0V712H326L454 183L584 712H842V0H674L672 553L531 0H374L227 553V0H65Z" />
<glyph unicode="N" glyph-name="N" horiz-adv-x="741" d="M69 0V712H249L510 257V712H672V0H494L231 448V0H69Z" />
<glyph unicode="O" glyph-name="O" horiz-adv-x="796" d="M580 356Q580 450 539 511Q490 582 398 582Q315 582 268 529Q216 471 216 356Q216 264 255 204Q302 130 398 130Q490 130 539 202Q580 263 580 356ZM758 356Q758 199 663 93Q562 -20 398 -20Q234 -20 133
93Q38 199 38 356Q38 513 133 619Q234 732 398 732Q562 732 663 619Q758 513 758 356Z" />
<glyph unicode="P" glyph-name="P" horiz-adv-x="704" d="M247 580V362H397Q454 362 482 395Q507 424 507 470Q507 525 479 552T392 580H247ZM69 0V712H422Q554 712 619 652T685 471Q685 378 628 315Q551 230 388 230H249V0H69Z" />
<glyph unicode="Q" glyph-name="Q" horiz-adv-x="796" d="M580 356Q580 450 539 511Q490 582 398 582Q315 582 268 529Q216 471 216 356Q216 264 255 204Q302 130 398 130Q490 130 539 202Q580 263 580 356ZM814 61L762 -66Q711 -62 652 -31Q606 -6 575 23Q535
2 491 -9T398 -20Q234 -20 133 93Q38 199 38 356Q38 513 133 619Q234 732 398 732Q562 732 663 619Q758 513 758 356Q758 288 740 229T684 119Q696 101 734 84T814 61Z" />
<glyph unicode="R" glyph-name="R" horiz-adv-x="722" d="M247 580V388H410Q458 388 481 412T505 484Q505 532 482 556T410 580H247ZM69 0V712H425Q554 712 618 654T683 478Q683 409 643 358T536 286L699 0H500L360 256H247V0H69Z" />
<glyph unicode="S" glyph-name="S" horiz-adv-x="685" d="M2 125L138 213Q237 124 344 124Q390 124 428 142Q477 165 477 206Q477 256 397 269L249 293Q45 326 45 489Q45 610 134 675Q212 732 336 732Q527 732 650 595L515 498Q441 588 324 588Q289 588 258 569Q223
548 223 516Q223 464 322 448L390 437Q513 417 573 378Q649 328 649 234Q649 91 536 27Q453 -20 323 -20Q135 -20 2 125Z" />
<glyph unicode="T" glyph-name="T" horiz-adv-x="574" d="M12 574V712H562V574H376V0H198V574H12Z" />
<glyph unicode="U" glyph-name="U" horiz-adv-x="741" d="M672 712V248Q672 114 572 41Q489 -20 370 -20Q252 -20 169 41Q69 114 69 248V712H247V263Q247 194 278 159T370 124Q432 124 463 159T494 263V712H672Z" />
<glyph unicode="V" glyph-name="V" horiz-adv-x="685" d="M244 0L6 712H195L342 204L492 712H679L433 0H244Z" />
<glyph unicode="W" glyph-name="W" horiz-adv-x="1000" d="M192 0L6 712H184L293 204L418 712H581L713 204L819 712H994L810 0H625L496 487L370 0H192Z" />
<glyph unicode="X" glyph-name="X" horiz-adv-x="778" d="M6 0L280 383L45 712H261L391 495L520 712H733L499 383L772 0H554L390 266L221 0H6Z" />
<glyph unicode="Y" glyph-name="Y" horiz-adv-x="722" d="M272 0V332L2 712H210L361 466L512 712H720L450 332V0H272Z" />
<glyph unicode="Z" glyph-name="Z" horiz-adv-x="685" d="M258 138H647V0H36V133L432 574H67V712H649V573L258 138Z" />
<glyph unicode="[" glyph-name="bracketleft" horiz-adv-x="352" d="M338 -148H72V712H338V628H204V-64H338V-148Z" />
<glyph unicode="\" glyph-name="backslash" horiz-adv-x="481" d="M335 -20L26 732H146L455 -20H335Z" />
<glyph unicode="]" glyph-name="bracketright" horiz-adv-x="352" d="M280 -148H14V-64H148V628H14V712H280V-148Z" />
<glyph unicode="^" glyph-name="asciicircum" horiz-adv-x="600" d="M189 317H73L247 682H353L527 317H410L300 565L189 317Z" />
<glyph unicode="_" glyph-name="underscore" horiz-adv-x="500" d="M500 -125H0V-75H500V-125Z" />
<glyph unicode="`" glyph-name="grave" horiz-adv-x="278" d="M180 742L279 592H159L-1 742H180Z" />
<glyph unicode="a" glyph-name="a" horiz-adv-x="593" d="M369 222V259L264 229Q189 208 189 160Q189 130 207 115T262 100Q310 100 339 131T369 222ZM519 392V111Q519 36 533 0H389Q381 25 377 55Q358 25 308 5Q262 -14 217 -14Q138 -14 90 27Q39 70 39 144Q39
235 112 282Q174 322 312 341L369 349V393Q369 422 351 436T295 450Q257 450 238 434T213 379H63Q68 546 282 546Q399 546 455 514Q519 477 519 392Z" />
<glyph unicode="b" glyph-name="b" horiz-adv-x="630" d="M70 0V712H226V483Q255 515 291 530T372 546Q464 546 526 486Q599 415 598 282Q597 131 528 55Q466 -14 359 -14Q317 -14 282 2T220 52V0H70ZM225 266Q225 183 252 142T334 100Q445 100 442 266Q441 348
419 387Q393 432 334 432Q280 432 253 391T225 266Z" />
<glyph unicode="c" glyph-name="c" horiz-adv-x="556" d="M535 416L415 353Q381 426 315 426Q255 426 225 386T194 266Q194 194 223 152Q255 106 315 106Q394 106 426 184L538 127Q501 62 440 25Q376 -14 301 -14Q179 -14 107 59Q32 134 32 266Q32 395 109 472Q182
546 296 546Q464 546 535 416Z" />
<glyph unicode="d" glyph-name="d" horiz-adv-x="630" d="M560 712V0H410L408 52Q382 19 347 3T265 -14Q163 -14 102 52Q34 124 32 262Q30 408 104 483Q165 546 258 546Q304 546 340 532T404 490V712H560ZM404 277Q404 355 377 393T295 432Q242 432 215 391T188
266Q188 183 215 142T295 100Q350 100 377 144T404 277Z" />
<glyph unicode="e" glyph-name="e" horiz-adv-x="593" d="M554 234H188Q189 164 228 129Q259 100 304 100Q345 100 374 123Q397 141 434 194L551 133Q472 -14 293 -14Q172 -14 101 62Q32 134 32 250Q32 390 101 468T293 546Q429 546 496 452Q553 371 554 234ZM186
330H398Q395 383 360 410Q332 432 292 432Q254 432 225 407Q191 379 186 330Z" />
<glyph unicode="f" glyph-name="f" horiz-adv-x="352" d="M90 0V426H8V522H90V574Q90 720 242 720Q310 720 344 708V594Q289 594 283 593Q246 587 246 556V522H342V426H246V0H90Z" />
<glyph unicode="g" glyph-name="g" horiz-adv-x="611" d="M393 532H537V-1Q537 -88 474 -132T282 -176Q38 -176 37 8H199Q200 -74 289 -74Q339 -74 360 -58Q386 -38 386 16V77Q364 55 327 44T239 33Q134 33 80 110Q32 177 32 287Q32 393 84 465Q141 546 241 546Q289
546 327 532T393 490V532ZM387 289Q387 363 355 401Q328 432 286 432Q237 432 213 397T188 289Q188 218 212 183T284 147Q350 147 373 197Q387 228 387 289Z" />
<glyph unicode="h" glyph-name="h" horiz-adv-x="611" d="M70 0V712H226L228 482Q249 511 294 529Q335 546 374 546Q458 546 499 503T541 374V0H385V319Q385 370 366 395T307 420Q267 420 247 390T226 298V0H70Z" />
<glyph unicode="i" glyph-name="i" horiz-adv-x="296" d="M70 532H226V0H70V532ZM226 592H70V712H226V592Z" />
<glyph unicode="j" glyph-name="j" horiz-adv-x="296" d="M226 532V-30Q226 -92 197 -131Q163 -176 95 -176H2V-50H37Q54 -50 62 -38T70 -2V532H226ZM70 592V712H226V592H70Z" />
<glyph unicode="k" glyph-name="k" horiz-adv-x="593" d="M226 0H70V712H226V353L388 532H579L397 330L594 0H416L284 215L226 156V0Z" />
<glyph unicode="l" glyph-name="l" horiz-adv-x="296" d="M226 0H70V712H226V0Z" />
<glyph unicode="m" glyph-name="m" horiz-adv-x="926" d="M70 0V532H226V485Q252 516 290 531T380 546Q424 546 459 529T521 475Q556 511 599 528T692 546Q751 546 794 522Q856 486 856 406V0H700V311Q700 368 682 394T620 420Q582 420 562 395T541 327V0H385V333Q385
377 366 398T309 420Q268 420 247 398T226 331V0H70Z" />
<glyph unicode="n" glyph-name="n" horiz-adv-x="611" d="M70 0V532H226V485Q252 516 290 531T380 546Q461 546 501 508T541 393V0H385V333Q385 377 366 398T309 420Q268 420 247 398T226 331V0H70Z" />
<glyph unicode="o" glyph-name="o" horiz-adv-x="630" d="M315 426Q251 426 218 380Q188 338 188 266Q188 194 218 152Q251 106 315 106Q379 106 410 147T442 272Q442 340 412 381Q378 426 315 426ZM315 546Q442 546 520 472T598 266Q598 134 520 60T315 -14Q188
-14 110 60T32 266Q32 398 110 472T315 546Z" />
<glyph unicode="p" glyph-name="p" horiz-adv-x="611" d="M63 -176V532H207L209 483Q234 515 269 530T351 546Q450 546 512 479Q579 407 579 284Q579 136 520 61T352 -14Q314 -14 281 -2T219 34V-176H63ZM215 266Q215 183 242 142T323 100Q377 100 404 146T431
283Q431 344 407 385Q379 432 325 432Q270 432 241 383Q215 339 215 266Z" />
<glyph unicode="q" glyph-name="q" horiz-adv-x="611" d="M548 532V-176H392L390 34Q363 10 331 -2T259 -14Q150 -14 91 61T32 284Q32 407 99 479Q161 546 260 546Q307 546 343 531T404 483V532H548ZM396 266Q396 339 370 383Q341 432 286 432Q232 432 204 385Q180
344 180 283Q180 192 207 146T288 100Q342 100 369 141T396 266Z" />
<glyph unicode="r" glyph-name="r" horiz-adv-x="389" d="M70 0V532H226V478Q278 527 372 534L373 396L356 394Q283 385 256 369Q226 351 226 308V0H70Z" />
<glyph unicode="s" glyph-name="s" horiz-adv-x="556" d="M511 469L415 375Q393 401 348 417Q308 432 268 432Q235 432 218 422T201 391Q201 356 283 339Q405 313 434 300Q516 262 516 176Q516 79 440 29Q375 -14 276 -14Q192 -14 132 12Q77 35 16 91L113 175Q191
100 281 100Q324 100 345 113T366 154Q366 186 284 202Q164 227 133 241Q51 278 51 360Q51 453 123 503Q184 546 276 546Q396 546 511 469Z" />
<glyph unicode="t" glyph-name="t" horiz-adv-x="352" d="M333 522V426H240V165Q240 139 252 126T289 112Q312 112 336 115V-8Q276 -14 236 -14Q146 -14 110 37Q84 74 84 146V426H8V522H84V676H240V522H333Z" />
<glyph unicode="u" glyph-name="u" horiz-adv-x="611" d="M541 532V0H385V47Q359 17 321 2T231 -14Q151 -14 111 24T70 139V532H226V184Q226 148 245 130T302 112Q344 112 364 133T385 195V532H541Z" />
<glyph unicode="v" glyph-name="v" horiz-adv-x="519" d="M180 0L0 532H167L261 156L353 532H519L337 0H180Z" />
<glyph unicode="w" glyph-name="w" horiz-adv-x="796" d="M157 0L-2 532H160L233 156L311 532H480L552 156L635 532H798L621 0H468L390 347L311 0H157Z" />
<glyph unicode="x" glyph-name="x" horiz-adv-x="519" d="M13 532H192L260 382L330 532H509L346 280L521 0H349L258 172L171 0H-2L172 277L13 532Z" />
<glyph unicode="y" glyph-name="y" horiz-adv-x="500" d="M41 -176V-54Q77 -56 94 -56Q166 -56 166 -17Q166 -4 152 40L-4 532H160L248 126L335 532H504L317 -35Q294 -105 265 -136Q228 -176 164 -176H41Z" />
<glyph unicode="z" glyph-name="z" horiz-adv-x="574" d="M77 412V532H528V406L245 120H526V0H46V126L329 412H77Z" />
<glyph unicode="{" glyph-name="braceleft" horiz-adv-x="333" d="M331 712V622H289Q231 622 231 551V380Q231 329 190 303Q162 285 123 281Q162 279 190 261Q231 235 231 184V13Q231 -58 289 -58H331V-148H244Q184 -148 145 -115Q99 -77 99 -4V170Q99 231 2 231V333Q99
333 99 394V568Q99 641 145 679Q184 712 244 712H331Z" />
<glyph unicode="|" glyph-name="bar" horiz-adv-x="222" d="M51 -214V786H171V-214H51Z" />
<glyph unicode="}" glyph-name="braceright" horiz-adv-x="333" d="M2 -148V-58H44Q102 -58 102 13V184Q102 235 143 261Q171 279 210 283Q171 285 143 303Q102 329 102 380V551Q102 622 44 622H2V712H89Q149 712 189 679Q234 641 234 568V394Q234 333 331 333V231Q234
231 234 170V-4Q234 -77 189 -115Q149 -148 89 -148H2Z" />
<glyph unicode="~" glyph-name="asciitilde" horiz-adv-x="600" d="M105 157L69 259Q114 344 194 344Q235 344 305 313Q387 277 407 277Q448 277 495 349L531 247Q501 205 481 188Q447 161 406 161Q363 161 304 194Q239 230 189 230Q140 230 105 157Z" />
</font>
</defs>
</svg>
